<svg width="103" height="81" viewBox="0 0 103 81" fill="none" xmlns="http://www.w3.org/2000/svg">
<path d="M101.953 79.8273C86.453 48.3274 60.2174 45.7604 42.2851 51.2153C39.4888 52.066 32.957 53.8271 34.9439 59.0942C36.5476 62.5934 39.957 66.2205 46.4573 64.6111C55.7572 62.3096 66.8731 56.4587 60.6444 45.2036C53.8637 32.9508 38.7766 22.752 26.834 15.9258C21.0413 12.6148 13.8058 9.08626 7.28208 7.57096C2.95144 6.56506 6.14216 8.60739 8.16263 10.5819C11.0363 13.3901 17.6717 19.8746 11.3097 13.6574C8.72466 11.1311 5.50126 8.77627 2.53444 7.17242C-0.637494 5.45769 5.97105 6.21245 6.87165 6.03492C9.7109 5.47525 13.7389 4.01996 15.7968 1.91416" stroke="url(#paint0_linear_5435_9099)" stroke-width="2.01323" stroke-linecap="round"/>
<defs>
<linearGradient id="paint0_linear_5435_9099" x1="3.84739" y1="4.14673" x2="91.8594" y2="90.1558" gradientUnits="userSpaceOnUse">
<stop stop-color="#45C9C4"/>
<stop offset="0.357084" stop-color="#2DA09C"/>
<stop offset="0.849474" stop-color="#098681"/>
<stop offset="1" stop-color="#035B58"/>
</linearGradient>
</defs>
</svg>
