<svg width="209" height="143" viewBox="0 0 209 143" fill="none" xmlns="http://www.w3.org/2000/svg">
<path d="M191.191 -0.458176C210.847 20.8752 208.868 48.271 208.806 48.5835V131.917C208.806 134.68 207.708 137.329 205.755 139.283C203.801 141.236 201.152 142.333 198.389 142.333H135.889C124.399 142.333 115.056 132.99 115.056 121.5V48.5835C115.056 45.8208 116.153 43.1713 118.107 41.2178C120.06 39.2643 122.71 38.1668 125.472 38.1668H157.535C157.31 33.0178 155.772 28.0118 153.066 23.6252C147.774 15.2814 137.806 9.58348 123.42 6.70848L115.056 5.04182V-24.3332H125.472C154.462 -24.3332 176.576 -16.3019 191.191 -0.458176ZM76.5348 -0.458176C96.2015 20.8752 94.2119 48.271 94.1494 48.5835V131.917C94.1494 134.68 93.0519 137.329 91.0984 139.283C89.1449 141.236 86.4954 142.333 83.7327 142.333H21.2327C9.74316 142.333 0.399414 132.99 0.399414 121.5V48.5835C0.399414 45.8208 1.49688 43.1713 3.45038 41.2178C5.40389 39.2643 8.05341 38.1668 10.8161 38.1668H42.8786C42.6539 33.0178 41.1155 28.0118 38.4098 23.6252C33.1182 15.2814 23.1494 9.58348 8.764 6.70848L0.399414 5.04182V-24.3332H10.8161C39.8057 -24.3332 61.9202 -16.3019 76.5348 -0.458176Z" fill="#D3F1F1"/>
</svg>
