<svg width="32" height="24" viewBox="0 0 32 24" fill="none" xmlns="http://www.w3.org/2000/svg">
<path d="M3.53626 20.562C0.705757 17.49 0.990757 13.545 0.999756 13.5V1.5C0.999756 1.10218 1.15779 0.720645 1.43909 0.43934C1.7204 0.158036 2.10193 0 2.49976 0H11.4998C13.1543 0 14.4998 1.3455 14.4998 3V13.5C14.4998 13.8978 14.3417 14.2794 14.0604 14.5607C13.7791 14.842 13.3976 15 12.9998 15H8.38276C8.41511 15.7415 8.63663 16.4623 9.02625 17.094C9.78826 18.2955 11.2238 19.116 13.2953 19.53L14.4998 19.77V24H12.9998C8.82526 24 5.64076 22.8435 3.53626 20.562ZM20.0468 20.562C17.2148 17.49 17.5013 13.545 17.5103 13.5V1.5C17.5103 1.10218 17.6683 0.720645 17.9496 0.43934C18.2309 0.158036 18.6124 0 19.0103 0H28.0103C29.6648 0 31.0103 1.3455 31.0103 3V13.5C31.0103 13.8978 30.8522 14.2794 30.5709 14.5607C30.2896 14.842 29.9081 15 29.5103 15H24.8933C24.9256 15.7415 25.1471 16.4623 25.5368 17.094C26.2988 18.2955 27.7343 19.116 29.8058 19.53L31.0103 19.77V24H29.5103C25.3358 24 22.1513 22.8435 20.0468 20.562Z" fill="#BFC4C3"/>
</svg>
