<svg width="45" height="35" viewBox="0 0 45 35" fill="none" xmlns="http://www.w3.org/2000/svg">
<path d="M4.15105 29.7846C-0.0160789 25.3473 0.403503 19.649 0.416752 19.584V2.25065C0.416752 1.67602 0.649414 1.12492 1.06356 0.718587C1.4777 0.312258 2.0394 0.0839844 2.62509 0.0839844H15.8751C18.3109 0.0839844 20.2918 2.02748 20.2918 4.41732V19.584C20.2918 20.1586 20.0591 20.7097 19.6449 21.116C19.2308 21.5224 18.6691 21.7506 18.0834 21.7506H11.2862C11.3338 22.8217 11.6599 23.8629 12.2335 24.7753C13.3554 26.5108 15.4688 27.696 18.5185 28.294L20.2918 28.6406V34.7506H18.0834C11.9376 34.7506 7.24934 33.0802 4.15105 29.7846ZM28.4582 29.7846C24.2888 25.3473 24.7106 19.649 24.7239 19.584V2.25065C24.7239 1.67602 24.9565 1.12492 25.3707 0.718587C25.7848 0.312258 26.3465 0.0839844 26.9322 0.0839844H40.1822C42.618 0.0839844 44.5989 2.02748 44.5989 4.41732V19.584C44.5989 20.1586 44.3662 20.7097 43.9521 21.116C43.5379 21.5224 42.9762 21.7506 42.3905 21.7506H35.5933C35.6409 22.8217 35.9671 23.8629 36.5407 24.7753C37.6625 26.5108 39.7759 27.696 42.8256 28.294L44.5989 28.6406V34.7506H42.3905C36.2448 34.7506 31.5565 33.0802 28.4582 29.7846Z" fill="#D3F1F1"/>
</svg>
