<svg width="370" height="56" viewBox="0 0 370 56" fill="none" xmlns="http://www.w3.org/2000/svg">
<path d="M47.2083 27.4583C47.2083 33.1146 46.1875 37.9948 44.1458 42.1042C42.1146 46.2031 39.3229 49.3698 35.7708 51.6042C32.2135 53.8281 28.1563 54.9375 23.6042 54.9375C19.0312 54.9375 14.9688 53.8281 11.4167 51.6042C7.875 49.3698 5.08333 46.2031 3.04167 42.1042C1.01042 37.9948 0 33.1146 0 27.4583C0 21.8229 1.01042 16.9531 3.04167 12.8542C5.08333 8.74479 7.875 5.57813 11.4167 3.35417C14.9688 1.11979 19.0312 0 23.6042 0C28.1563 0 32.2135 1.11979 35.7708 3.35417C39.3229 5.57813 42.1146 8.74479 44.1458 12.8542C46.1875 16.9531 47.2083 21.8229 47.2083 27.4583ZM40.9375 27.4583C40.9375 22.8333 40.1667 18.9323 38.625 15.75C37.0833 12.5573 35 10.1406 32.375 8.5C29.7604 6.86458 26.8385 6.04167 23.6042 6.04167C20.3646 6.04167 17.4375 6.86458 14.8125 8.5C12.1875 10.1406 10.1042 12.5573 8.5625 15.75C7.02083 18.9323 6.25 22.8333 6.25 27.4583C6.25 32.099 7.02083 36.0156 8.5625 39.2083C10.1042 42.3906 12.1875 44.8021 14.8125 46.4375C17.4375 48.0625 20.3646 48.875 23.6042 48.875C26.8385 48.875 29.7604 48.0625 32.375 46.4375C35 44.8021 37.0833 42.3906 38.625 39.2083C40.1667 36.0156 40.9375 32.099 40.9375 27.4583Z" fill="#0DB4A5" style="fill:#0DB4A5;fill:color(display-p3 0.0510 0.7059 0.6471);fill-opacity:1;"/>
<path d="M78.1048 37.8118V14.1035H84.2715V54.2077H78.1048V47.416H77.6882C76.7402 49.4577 75.2767 51.1869 73.2923 52.6035C71.3184 54.0202 68.8184 54.7285 65.7923 54.7285C62.0267 54.7285 58.9225 53.4889 56.4798 50.9994C54.0475 48.515 52.834 44.7077 52.834 39.5827V14.1035H59.0007V39.166C59.0007 42.0983 59.8184 44.4316 61.459 46.166C63.11 47.9056 65.2142 48.7702 67.7715 48.7702C69.2975 48.7702 70.86 48.3848 72.459 47.6035C74.0527 46.8118 75.3965 45.6139 76.4798 43.9993C77.5632 42.3743 78.1048 40.3118 78.1048 37.8118Z" fill="#0DB4A5" style="fill:#0DB4A5;fill:color(display-p3 0.0510 0.7059 0.6471);fill-opacity:1;"/>
<path d="M108.587 14.1035V19.3118H100.024V42.7077C100.024 44.4577 100.279 45.765 100.795 46.6244C101.305 47.4889 101.967 48.0619 102.774 48.3535C103.592 48.6348 104.451 48.7702 105.357 48.7702C106.035 48.7702 106.592 48.7389 107.024 48.666C107.451 48.5827 107.8 48.515 108.066 48.4577L109.316 53.9994C108.899 54.1556 108.316 54.3119 107.566 54.4785C106.816 54.6452 105.868 54.7285 104.732 54.7285C102.982 54.7285 101.274 54.3535 99.6074 53.6035C97.9512 52.8535 96.5762 51.7181 95.4824 50.1869C94.3991 48.6608 93.8574 46.7285 93.8574 44.3952V19.3118H87.7949V14.1035H93.8574V4.47852H100.024V14.1035H108.587Z" fill="#0DB4A5" style="fill:#0DB4A5;fill:color(display-p3 0.0510 0.7059 0.6471);fill-opacity:1;"/>
<path d="M113.48 54.207V14.1029H119.439V20.1445H119.855C120.564 18.1602 121.876 16.5508 123.793 15.3112C125.71 14.0768 127.876 13.457 130.293 13.457C131.402 13.457 132.376 13.5924 133.21 13.8529C134.053 14.1185 134.793 14.4779 135.418 14.9362L133.314 20.1445C132.882 19.9258 132.376 19.7487 131.793 19.6237C131.21 19.4883 130.533 19.4154 129.772 19.4154C126.84 19.4154 124.418 20.3112 122.501 22.1029C120.595 23.8841 119.647 26.1237 119.647 28.832V54.207H113.48Z" fill="#0DB4A5" style="fill:#0DB4A5;fill:color(display-p3 0.0510 0.7059 0.6471);fill-opacity:1;"/>
<path d="M154.086 55.0417C150.221 55.0417 146.888 54.1875 144.086 52.4792C141.294 50.7604 139.148 48.3542 137.648 45.2708C136.148 42.1771 135.398 38.5729 135.398 34.4583C135.398 30.349 136.148 26.724 137.648 23.5833C139.148 20.4479 141.253 17.9948 143.961 16.2292C146.669 14.4531 149.836 13.5625 153.461 13.5625C155.544 13.5625 157.607 13.9167 159.648 14.625C161.69 15.3229 163.544 16.4479 165.211 18C166.878 19.5573 168.201 21.6198 169.19 24.1875C170.19 26.7448 170.69 29.8906 170.69 33.625V36.25H141.586C141.721 40.5313 142.93 43.8073 145.211 46.0833C147.503 48.3646 150.461 49.5 154.086 49.5C156.503 49.5 158.576 48.9792 160.315 47.9375C162.065 46.8958 163.326 45.3333 164.107 43.25L170.065 44.9167C169.133 47.9479 167.253 50.3906 164.419 52.25C161.596 54.1146 158.154 55.0417 154.086 55.0417ZM141.586 30.9167H164.419C164.419 27.5156 163.424 24.6979 161.44 22.4583C159.466 20.224 156.805 19.1042 153.461 19.1042C151.112 19.1042 149.076 19.6563 147.357 20.75C145.633 21.849 144.273 23.3021 143.273 25.1042C142.284 26.9115 141.721 28.849 141.586 30.9167Z" fill="#0DB4A5" style="fill:#0DB4A5;fill:color(display-p3 0.0510 0.7059 0.6471);fill-opacity:1;"/>
<path d="M187.485 55.1458C184.943 55.1458 182.636 54.6667 180.568 53.7083C178.495 52.7396 176.85 51.3333 175.631 49.5C174.423 47.6563 173.818 45.4271 173.818 42.8125C173.818 40.5208 174.266 38.6615 175.173 37.2292C176.074 35.7865 177.282 34.6563 178.798 33.8333C180.308 33.0156 181.985 32.4063 183.818 32C185.662 31.5833 187.516 31.2604 189.381 31.0208C191.808 30.7031 193.787 30.4583 195.318 30.2917C196.844 30.125 197.954 29.849 198.652 29.4583C199.36 29.0573 199.714 28.3542 199.714 27.3542V27.1458C199.714 24.5781 199.011 22.5781 197.61 21.1458C196.204 19.7187 194.089 19 191.256 19C188.308 19 185.995 19.6458 184.318 20.9375C182.652 22.2292 181.475 23.6042 180.798 25.0625L174.964 22.9792C176.006 20.5365 177.402 18.6354 179.152 17.2708C180.902 15.8958 182.808 14.9375 184.881 14.3958C186.964 13.8437 189.016 13.5625 191.048 13.5625C192.339 13.5625 193.824 13.7187 195.506 14.0208C197.183 14.3281 198.808 14.9531 200.381 15.8958C201.949 16.8437 203.256 18.2656 204.298 20.1667C205.35 22.0573 205.881 24.5937 205.881 27.7708V54.2083H199.714V48.7708H199.402C198.985 49.6458 198.287 50.5833 197.318 51.5833C196.344 52.5729 195.048 53.4115 193.423 54.1042C191.798 54.7969 189.818 55.1458 187.485 55.1458ZM188.443 49.6042C190.87 49.6042 192.928 49.125 194.61 48.1667C196.287 47.2083 197.558 45.974 198.423 44.4583C199.282 42.9479 199.714 41.3542 199.714 39.6875V34.0417C199.449 34.3646 198.881 34.6458 198.006 34.8958C197.131 35.1458 196.115 35.3646 194.964 35.5417C193.824 35.724 192.719 35.8854 191.652 36.0208C190.579 36.1458 189.719 36.2604 189.068 36.3542C187.454 36.5625 185.954 36.8958 184.568 37.3542C183.193 37.8125 182.079 38.5 181.235 39.4167C180.386 40.3333 179.964 41.5729 179.964 43.125C179.964 45.2813 180.761 46.8958 182.36 47.9792C183.954 49.0625 185.985 49.6042 188.443 49.6042Z" fill="#0DB4A5" style="fill:#0DB4A5;fill:color(display-p3 0.0510 0.7059 0.6471);fill-opacity:1;"/>
<path d="M229.046 55.0417C225.28 55.0417 222.035 54.1563 219.316 52.375C216.608 50.599 214.525 48.1563 213.066 45.0417C211.608 41.9323 210.879 38.3698 210.879 34.3542C210.879 30.2865 211.629 26.6875 213.129 23.5625C214.629 20.4375 216.733 17.9948 219.441 16.2292C222.15 14.4531 225.316 13.5625 228.941 13.5625C231.759 13.5625 234.301 14.0937 236.566 15.1458C238.827 16.1875 240.681 17.6563 242.129 19.5417C243.572 21.4167 244.467 23.6042 244.816 26.1042H238.65C238.176 24.2865 237.134 22.6667 235.525 21.25C233.926 19.8229 231.764 19.1042 229.046 19.1042C225.447 19.1042 222.546 20.4792 220.337 23.2292C218.129 25.9687 217.025 29.6042 217.025 34.1458C217.025 38.8021 218.113 42.5208 220.296 45.3125C222.473 48.1042 225.389 49.5 229.046 49.5C231.447 49.5 233.504 48.8854 235.212 47.6458C236.931 46.4115 238.077 44.6979 238.65 42.5H244.816C244.467 44.875 243.608 47.0104 242.233 48.8958C240.868 50.7865 239.072 52.2865 236.837 53.3958C234.598 54.4896 232.004 55.0417 229.046 55.0417Z" fill="#0DB4A5" style="fill:#0DB4A5;fill:color(display-p3 0.0510 0.7059 0.6471);fill-opacity:1;"/>
<path d="M255.565 30.0827V54.2077H249.398V0.728516H255.565V20.3535H256.086C257.013 18.2858 258.424 16.64 260.315 15.416C262.201 14.1816 264.721 13.5618 267.878 13.5618C271.987 13.5618 275.294 14.8014 277.794 17.2702C280.305 19.7441 281.565 23.5618 281.565 28.7285V54.2077H275.398V29.1452C275.398 25.9525 274.57 23.4785 272.919 21.7285C271.279 19.9785 269.008 19.1035 266.107 19.1035C263.065 19.1035 260.544 20.0618 258.544 21.9785C256.555 23.8848 255.565 26.5827 255.565 30.0827Z" fill="#0DB4A5" style="fill:#0DB4A5;fill:color(display-p3 0.0510 0.7059 0.6471);fill-opacity:1;"/>
<path d="M287.305 54.2025V0.681641H319.409V6.43164H293.784V24.515H316.992V30.265H293.784V54.2025H287.305Z" fill="#0F172A" style="fill:#0F172A;fill:color(display-p3 0.0588 0.0902 0.1647);fill-opacity:1;"/>
<path d="M350.52 37.7858V14.0566H356.708V54.2025H350.52V47.4108H350.104C349.171 49.4525 347.713 51.1816 345.729 52.5983C343.739 54.015 341.229 54.7233 338.187 54.7233C334.421 54.7233 331.317 53.4837 328.874 50.9941C326.442 48.4941 325.229 44.6816 325.229 39.5566V14.0566H331.395V39.14C331.395 42.0723 332.213 44.4108 333.854 46.1608C335.505 47.9004 337.614 48.765 340.187 48.765C341.713 48.765 343.275 48.3796 344.874 47.5983C346.468 46.8066 347.812 45.6087 348.895 43.9941C349.979 42.3691 350.52 40.3014 350.52 37.7858Z" fill="#0F172A" style="fill:#0F172A;fill:color(display-p3 0.0588 0.0902 0.1647);fill-opacity:1;"/>
<path d="M369.735 0.681641V54.2025H363.568V0.681641H369.735Z" fill="#0F172A" style="fill:#0F172A;fill:color(display-p3 0.0588 0.0902 0.1647);fill-opacity:1;"/>
</svg>
