<svg xmlns="http://www.w3.org/2000/svg" fill="none" viewBox="86.5 1 1171 323">
<rect x="86.5" y="1" width="1171" height="323" rx="16" fill="#035B58"/>
<g clip-path="url(#clip0_5435_9088)">
<mask id="mask0_5435_9088" style="mask-type:alpha" maskUnits="userSpaceOnUse" x="58" y="-157" width="349" height="349">
<path d="M406.237 -156.206H58.0334V191.998H406.237V-156.206Z" fill="url(#paint0_radial_5435_9088)"/>
</mask>
<g mask="url(#mask0_5435_9088)">
<mask id="mask1_5435_9088" style="mask-type:luminance" maskUnits="userSpaceOnUse" x="-1" y="-157" width="466" height="349">
<path d="M464.271 -156.206H-0.000732422V191.998H464.271V-156.206Z" fill="white"/>
</mask>
<g mask="url(#mask1_5435_9088)">
<mask id="mask2_5435_9088" style="mask-type:luminance" maskUnits="userSpaceOnUse" x="-17" y="-109" width="465" height="349">
<path d="M447.276 -108.795H-16.9949V239.408H447.276V-108.795Z" fill="white"/>
</mask>
<g mask="url(#mask2_5435_9088)">
<path d="M60.5056 -108.795V239.408" stroke="#009590" stroke-width="1.04372"/>
<path d="M79.8499 -108.795V239.408" stroke="#009590" stroke-width="1.04372"/>
<path d="M99.1946 -108.795V239.408" stroke="#009590" stroke-width="1.04372"/>
<path d="M118.539 -108.795V239.408" stroke="#009590" stroke-width="1.04372"/>
<path d="M137.884 -108.795V239.408" stroke="#009590" stroke-width="1.04372"/>
<path d="M157.229 -108.795V239.408" stroke="#009590" stroke-width="1.04372"/>
<path d="M176.573 -108.795V239.408" stroke="#009590" stroke-width="1.04372"/>
<path d="M195.918 -108.795V239.408" stroke="#009590" stroke-width="1.04372"/>
<path d="M215.263 -108.795V239.408" stroke="#009590" stroke-width="1.04372"/>
<path d="M234.607 -108.795V239.408" stroke="#009590" stroke-width="1.04372"/>
<path d="M253.952 -108.795V239.408" stroke="#009590" stroke-width="1.04372"/>
<path d="M273.296 -108.795V239.408" stroke="#009590" stroke-width="1.04372"/>
<path d="M292.641 -108.795V239.408" stroke="#009590" stroke-width="1.04372"/>
<path d="M311.985 -108.795V239.408" stroke="#009590" stroke-width="1.04372"/>
<path d="M331.331 -108.795V239.408" stroke="#009590" stroke-width="1.04372"/>
<path d="M350.675 -108.795V239.408" stroke="#009590" stroke-width="1.04372"/>
<path d="M370.019 -108.795V239.408" stroke="#009590" stroke-width="1.04372"/>
</g>
<mask id="mask3_5435_9088" style="mask-type:luminance" maskUnits="userSpaceOnUse" x="-1" y="-157" width="466" height="349">
<path d="M464.271 -156.205H-0.000488281V191.998H464.271V-156.205Z" fill="white"/>
</mask>
<g mask="url(#mask3_5435_9088)">
<path d="M-0.000488281 17.7764H464.271" stroke="#009590" stroke-width="1.04372"/>
<path d="M-0.000488281 37.1221H464.271" stroke="#009590" stroke-width="1.04372"/>
<path d="M-0.000488281 56.4658H464.271" stroke="#009590" stroke-width="1.04372"/>
<path d="M-0.000488281 75.811H464.271" stroke="#009590" stroke-width="1.04372"/>
<path d="M-0.000488281 95.1558H464.271" stroke="#009590" stroke-width="1.04372"/>
<path d="M-0.000488281 114.5H464.271" stroke="#009590" stroke-width="1.04372"/>
<path d="M-0.000488281 133.844H464.271" stroke="#009590" stroke-width="1.04372"/>
<path d="M-0.000488281 153.188H464.271" stroke="#009590" stroke-width="1.04372"/>
<path d="M-0.000488281 172.533H464.271" stroke="#009590" stroke-width="1.04372"/>
</g>
</g>
</g>
</g>
<g clip-path="url(#clip1_5435_9088)">
<mask id="mask4_5435_9088" style="mask-type:alpha" maskUnits="userSpaceOnUse" x="940" y="132" width="349" height="349">
<path d="M1288.24 480.206H940.033V132.003H1288.24V480.206Z" fill="url(#paint1_radial_5435_9088)"/>
</mask>
<g mask="url(#mask4_5435_9088)">
<mask id="mask5_5435_9088" style="mask-type:luminance" maskUnits="userSpaceOnUse" x="881" y="132" width="466" height="349">
<path d="M1346.27 480.206H881.999V132.002H1346.27V480.206Z" fill="white"/>
</mask>
<g mask="url(#mask5_5435_9088)">
<mask id="mask6_5435_9088" style="mask-type:luminance" maskUnits="userSpaceOnUse" x="865" y="84" width="465" height="349">
<path d="M1329.28 432.795H865.005V84.5915H1329.28V432.795Z" fill="white"/>
</mask>
<g mask="url(#mask6_5435_9088)">
<path d="M942.505 432.795V84.5915" stroke="#009590" stroke-width="1.04918"/>
<path d="M961.85 432.795V84.5915" stroke="#009590" stroke-width="1.04918"/>
<path d="M981.194 432.795V84.5915" stroke="#009590" stroke-width="1.04918"/>
<path d="M1000.54 432.795V84.5915" stroke="#009590" stroke-width="1.04918"/>
<path d="M1019.88 432.795V84.5915" stroke="#009590" stroke-width="1.04918"/>
<path d="M1039.23 432.795V84.5915" stroke="#009590" stroke-width="1.04918"/>
<path d="M1058.57 432.795V84.5915" stroke="#009590" stroke-width="1.04918"/>
<path d="M1077.92 432.795V84.5915" stroke="#009590" stroke-width="1.04918"/>
<path d="M1097.26 432.795V84.5915" stroke="#009590" stroke-width="1.04918"/>
<path d="M1116.61 432.795V84.5915" stroke="#009590" stroke-width="1.04918"/>
<path d="M1135.95 432.795V84.5915" stroke="#009590" stroke-width="1.04918"/>
<path d="M1155.3 432.795V84.5915" stroke="#009590" stroke-width="1.04918"/>
<path d="M1174.64 432.795V84.5915" stroke="#009590" stroke-width="1.04918"/>
<path d="M1193.99 432.795V84.5915" stroke="#009590" stroke-width="1.04918"/>
<path d="M1213.33 432.795V84.5915" stroke="#009590" stroke-width="1.04918"/>
<path d="M1232.68 432.795V84.5915" stroke="#009590" stroke-width="1.04918"/>
<path d="M1252.02 432.795V84.5915" stroke="#009590" stroke-width="1.04918"/>
</g>
<mask id="mask7_5435_9088" style="mask-type:luminance" maskUnits="userSpaceOnUse" x="881" y="132" width="466" height="349">
<path d="M1346.27 480.205H881.999V132.002H1346.27V480.205Z" fill="white"/>
</mask>
<g mask="url(#mask7_5435_9088)">
<path d="M881.999 306.224H1346.27" stroke="#009590" stroke-width="1.04918"/>
<path d="M881.999 286.878H1346.27" stroke="#009590" stroke-width="1.04918"/>
<path d="M881.999 267.534H1346.27" stroke="#009590" stroke-width="1.04918"/>
<path d="M881.999 248.189H1346.27" stroke="#009590" stroke-width="1.04918"/>
<path d="M881.999 228.844H1346.27" stroke="#009590" stroke-width="1.04918"/>
<path d="M881.999 209.501H1346.27" stroke="#009590" stroke-width="1.04918"/>
<path d="M881.999 190.156H1346.27" stroke="#009590" stroke-width="1.04918"/>
<path d="M881.999 170.812H1346.27" stroke="#009590" stroke-width="1.04918"/>
<path d="M881.999 151.467H1346.27" stroke="#009590" stroke-width="1.04918"/>
</g>
</g>
</g>
</g>
<defs>
<radialGradient id="paint0_radial_5435_9088" cx="0" cy="0" r="1" gradientUnits="userSpaceOnUse" gradientTransform="translate(232.135 -156.206) rotate(90) scale(348.203 181.74)">
<stop/>
<stop offset="0.953125" stop-opacity="0"/>
</radialGradient>
<radialGradient id="paint1_radial_5435_9088" cx="0" cy="0" r="1" gradientUnits="userSpaceOnUse" gradientTransform="translate(1114.13 480.206) rotate(-90) scale(348.203 181.74)">
<stop/>
<stop offset="0.953125" stop-opacity="0"/>
</radialGradient>
<clipPath id="clip0_5435_9088">
<rect width="464.271" height="192" fill="white" transform="matrix(1 0 0 -1 0 192)"/>
</clipPath>
<clipPath id="clip1_5435_9088">
<rect width="464.271" height="192" fill="white" transform="translate(882 132)"/>
</clipPath>
</defs>
</svg>