<svg xmlns="http://www.w3.org/2000/svg" fill="none" viewBox="20 0.42 335 197">
<rect x="20" y="0.416992" width="335" height="197" rx="10" fill="#035B58"/>
<g clip-path="url(#clip0_5579_9177)">
<mask id="mask0_5579_9177" style="mask-type:alpha" maskUnits="userSpaceOnUse" x="229" y="125" width="133" height="132">
<path d="M361.085 256.636H229.869V125.42H361.085V256.636Z" fill="url(#paint0_radial_5579_9177)"/>
</mask>
<g mask="url(#mask0_5579_9177)">
<mask id="mask1_5579_9177" style="mask-type:luminance" maskUnits="userSpaceOnUse" x="207" y="125" width="176" height="132">
<path d="M382.954 256.637H208V125.421H382.954V256.637Z" fill="white"/>
</mask>
<g mask="url(#mask1_5579_9177)">
<mask id="mask2_5579_9177" style="mask-type:luminance" maskUnits="userSpaceOnUse" x="201" y="107" width="176" height="132">
<path d="M376.55 238.77H201.595V107.553H376.55V238.77Z" fill="white"/>
</mask>
<g mask="url(#mask2_5579_9177)">
<path d="M230.801 238.77V107.553" stroke="#009590" stroke-width="0.395371"/>
<path d="M238.09 238.77V107.553" stroke="#009590" stroke-width="0.395371"/>
<path d="M245.38 238.77V107.553" stroke="#009590" stroke-width="0.395371"/>
<path d="M252.67 238.77V107.553" stroke="#009590" stroke-width="0.395371"/>
<path d="M259.96 238.77V107.553" stroke="#009590" stroke-width="0.395371"/>
<path d="M267.25 238.77V107.553" stroke="#009590" stroke-width="0.395371"/>
<path d="M274.54 238.77V107.553" stroke="#009590" stroke-width="0.395371"/>
<path d="M281.829 238.77V107.553" stroke="#009590" stroke-width="0.395371"/>
<path d="M289.119 238.77V107.553" stroke="#009590" stroke-width="0.395371"/>
<path d="M296.409 238.77V107.553" stroke="#009590" stroke-width="0.395371"/>
<path d="M303.698 238.77V107.553" stroke="#009590" stroke-width="0.395371"/>
<path d="M310.988 238.77V107.553" stroke="#009590" stroke-width="0.395371"/>
<path d="M318.278 238.77V107.553" stroke="#009590" stroke-width="0.395371"/>
<path d="M325.568 238.77V107.553" stroke="#009590" stroke-width="0.395371"/>
<path d="M332.858 238.77V107.553" stroke="#009590" stroke-width="0.395371"/>
<path d="M340.147 238.77V107.553" stroke="#009590" stroke-width="0.395371"/>
<path d="M347.437 238.77V107.553" stroke="#009590" stroke-width="0.395371"/>
</g>
<mask id="mask3_5579_9177" style="mask-type:luminance" maskUnits="userSpaceOnUse" x="207" y="125" width="176" height="132">
<path d="M382.955 256.637H208V125.421H382.955V256.637Z" fill="white"/>
</mask>
<g mask="url(#mask3_5579_9177)">
<path d="M208 191.073H382.955" stroke="#009590" stroke-width="0.395371"/>
<path d="M208 183.783H382.955" stroke="#009590" stroke-width="0.395371"/>
<path d="M208 176.493H382.955" stroke="#009590" stroke-width="0.395371"/>
<path d="M208 169.203H382.955" stroke="#009590" stroke-width="0.395371"/>
<path d="M208 161.913H382.955" stroke="#009590" stroke-width="0.395371"/>
<path d="M208 154.624H382.955" stroke="#009590" stroke-width="0.395371"/>
<path d="M208 147.334H382.955" stroke="#009590" stroke-width="0.395371"/>
<path d="M208 140.045H382.955" stroke="#009590" stroke-width="0.395371"/>
<path d="M208 132.755H382.955" stroke="#009590" stroke-width="0.395371"/>
</g>
</g>
</g>
</g>
<g clip-path="url(#clip1_5579_9177)">
<mask id="mask4_5579_9177" style="mask-type:alpha" maskUnits="userSpaceOnUse" x="11" y="-59" width="133" height="132">
<path d="M11.8697 -58.4502L143.086 -58.4502L143.086 72.766L11.8697 72.766L11.8697 -58.4502Z" fill="url(#paint1_radial_5579_9177)"/>
</mask>
<g mask="url(#mask4_5579_9177)">
<mask id="mask5_5579_9177" style="mask-type:luminance" maskUnits="userSpaceOnUse" x="-10" y="-59" width="175" height="132">
<path d="M-9.99939 -58.4512L164.956 -58.4512L164.956 72.765L-9.99939 72.765L-9.99939 -58.4512Z" fill="white"/>
</mask>
<g mask="url(#mask5_5579_9177)">
<mask id="mask6_5579_9177" style="mask-type:luminance" maskUnits="userSpaceOnUse" x="-4" y="-41" width="176" height="132">
<path d="M-3.59534 -40.584L171.36 -40.584L171.36 90.6322L-3.59534 90.6322L-3.59534 -40.584Z" fill="white"/>
</mask>
<g mask="url(#mask6_5579_9177)">
<path d="M142.155 -40.584L142.155 90.6322" stroke="#009590" stroke-width="0.395371"/>
<path d="M134.865 -40.584L134.865 90.6322" stroke="#009590" stroke-width="0.395371"/>
<path d="M127.575 -40.584L127.575 90.6322" stroke="#009590" stroke-width="0.395371"/>
<path d="M120.285 -40.584L120.285 90.6322" stroke="#009590" stroke-width="0.395371"/>
<path d="M112.995 -40.584L112.995 90.6322" stroke="#009590" stroke-width="0.395371"/>
<path d="M105.706 -40.584L105.706 90.6322" stroke="#009590" stroke-width="0.395371"/>
<path d="M98.4158 -40.584L98.4158 90.6322" stroke="#009590" stroke-width="0.395371"/>
<path d="M91.126 -40.584L91.126 90.6322" stroke="#009590" stroke-width="0.395371"/>
<path d="M83.8362 -40.584L83.8362 90.6322" stroke="#009590" stroke-width="0.395371"/>
<path d="M76.5461 -40.584L76.5461 90.6322" stroke="#009590" stroke-width="0.395371"/>
<path d="M69.2566 -40.584L69.2566 90.6322" stroke="#009590" stroke-width="0.395371"/>
<path d="M61.9668 -40.584L61.9668 90.6322" stroke="#009590" stroke-width="0.395371"/>
<path d="M54.677 -40.584L54.677 90.6322" stroke="#009590" stroke-width="0.395371"/>
<path d="M47.3872 -40.584L47.3872 90.6322" stroke="#009590" stroke-width="0.395371"/>
<path d="M40.0972 -40.584L40.0972 90.6322" stroke="#009590" stroke-width="0.395371"/>
<path d="M32.8076 -40.584L32.8076 90.6322" stroke="#009590" stroke-width="0.395371"/>
<path d="M25.5181 -40.584L25.5181 90.6322" stroke="#009590" stroke-width="0.395371"/>
</g>
<mask id="mask7_5579_9177" style="mask-type:luminance" maskUnits="userSpaceOnUse" x="-10" y="-59" width="175" height="132">
<path d="M-9.99963 -58.4512L164.955 -58.4512L164.955 72.765L-9.99963 72.765L-9.99963 -58.4512Z" fill="white"/>
</mask>
<g mask="url(#mask7_5579_9177)">
<path d="M164.955 7.1123L-9.99964 7.1123" stroke="#009590" stroke-width="0.395371"/>
<path d="M164.955 14.4023L-9.99964 14.4023" stroke="#009590" stroke-width="0.395371"/>
<path d="M164.955 21.6924L-9.99964 21.6924" stroke="#009590" stroke-width="0.395371"/>
<path d="M164.955 28.9824L-9.99964 28.9824" stroke="#009590" stroke-width="0.395371"/>
<path d="M164.955 36.2725L-9.99964 36.2725" stroke="#009590" stroke-width="0.395371"/>
<path d="M164.955 43.5615L-9.99964 43.5615" stroke="#009590" stroke-width="0.395371"/>
<path d="M164.955 50.8516L-9.99964 50.8516" stroke="#009590" stroke-width="0.395371"/>
<path d="M164.955 58.1406L-9.99964 58.1406" stroke="#009590" stroke-width="0.395371"/>
<path d="M164.955 65.4307L-9.99964 65.4307" stroke="#009590" stroke-width="0.395371"/>
</g>
</g>
</g>
</g>
<defs>
<radialGradient id="paint0_radial_5579_9177" cx="0" cy="0" r="1" gradientUnits="userSpaceOnUse" gradientTransform="translate(295.477 256.636) rotate(-90) scale(131.216 68.4865)">
<stop/>
<stop offset="0.953125" stop-opacity="0"/>
</radialGradient>
<radialGradient id="paint1_radial_5579_9177" cx="0" cy="0" r="1" gradientUnits="userSpaceOnUse" gradientTransform="translate(77.4778 -58.4502) rotate(90) scale(131.216 68.4865)">
<stop/>
<stop offset="0.953125" stop-opacity="0"/>
</radialGradient>
<clipPath id="clip0_5579_9177">
<rect width="174.955" height="72.3528" fill="white" transform="translate(208 125.417)"/>
</clipPath>
<clipPath id="clip1_5579_9177">
<rect width="174.955" height="72.3528" fill="white" transform="matrix(-1 0 0 -1 164.955 72.7686)"/>
</clipPath>
</defs>
</svg>