<svg width="20" height="20" viewBox="0 0 20 20" fill="none" xmlns="http://www.w3.org/2000/svg">
<path d="M12.4386 3.67586L6.8946 6.3371C6.46793 6.54191 6.01203 6.59322 5.54729 6.48911C5.24314 6.42097 5.09105 6.38691 4.96858 6.37292C3.44786 6.19926 2.5 7.40285 2.5 8.78691V9.54641C2.5 10.9305 3.44786 12.1341 4.96858 11.9604C5.09105 11.9464 5.24315 11.9123 5.54729 11.8442C6.01203 11.7401 6.46793 11.7914 6.8946 11.9962L12.4386 14.6575C13.7112 15.2684 14.3475 15.5738 15.057 15.3357C15.7664 15.0977 16.0099 14.5867 16.497 13.565C17.8343 10.7593 17.8343 7.57404 16.497 4.7683C16.0099 3.74655 15.7664 3.23567 15.057 2.99758C14.3475 2.7595 13.7112 3.06495 12.4386 3.67586Z" stroke="#5356FF" stroke-width="1.5" stroke-linecap="round" stroke-linejoin="round"/>
<path d="M10.8335 14.1667V14.5833C10.8335 15.6534 10.8335 16.1884 10.6468 16.4905C10.3979 16.8932 9.94283 17.1208 9.47125 17.0782C9.11758 17.0464 8.68958 16.7253 7.8335 16.0833L6.8335 15.3333C6.01894 14.7224 5.8335 14.3515 5.8335 13.3333V12.0833" stroke="#5356FF" stroke-width="1.5" stroke-linecap="round" stroke-linejoin="round"/>
<path d="M6.25 11.6667V6.66666" stroke="#5356FF" stroke-width="1.5" stroke-linecap="round" stroke-linejoin="round"/>
</svg>
