<svg width="20" height="20" viewBox="0 0 20 20" fill="none" xmlns="http://www.w3.org/2000/svg">
<path d="M11.6665 17.5H13.3332M11.6665 17.5C10.9762 17.5 10.4165 16.9403 10.4165 16.25V14.1667H9.99984M11.6665 17.5H8.33317M9.99984 14.1667H9.58317V16.25C9.58317 16.9403 9.0235 17.5 8.33317 17.5M9.99984 14.1667V17.5M8.33317 17.5H6.6665" stroke="#2189FF" stroke-width="1.5" stroke-linecap="round" stroke-linejoin="round"/>
<path d="M13.3332 2.5H6.6665C4.30948 2.5 3.13097 2.5 2.39874 3.23223C1.6665 3.96447 1.6665 5.14298 1.6665 7.5V9.16667C1.6665 11.5237 1.6665 12.7022 2.39874 13.4344C3.13097 14.1667 4.30948 14.1667 6.6665 14.1667H13.3332C15.6902 14.1667 16.8687 14.1667 17.6009 13.4344C18.3332 12.7022 18.3332 11.5237 18.3332 9.16667V7.5C18.3332 5.14298 18.3332 3.96447 17.6009 3.23223C16.8687 2.5 15.6902 2.5 13.3332 2.5Z" stroke="#2189FF" stroke-width="1.5" stroke-linecap="round" stroke-linejoin="round"/>
<path d="M10 8.75001C10.9205 8.75001 11.6667 8.00381 11.6667 7.08334C11.6667 6.16286 10.9205 5.41667 10 5.41667C9.0795 5.41667 8.33333 6.16286 8.33333 7.08334C8.33333 8.00381 9.0795 8.75001 10 8.75001ZM10 8.75001C8.61925 8.75001 7.5 9.86926 7.5 11.25M10 8.75001C11.3807 8.75001 12.5 9.86926 12.5 11.25" stroke="#2189FF" stroke-width="1.5" stroke-linecap="round" stroke-linejoin="round"/>
</svg>
