<svg width="20" height="20" viewBox="0 0 20 20" fill="none" xmlns="http://www.w3.org/2000/svg">
<path d="M2.0835 10C2.0835 6.26805 2.0835 4.40208 3.24286 3.2427C4.40224 2.08334 6.26821 2.08334 10.0002 2.08334C13.7321 2.08334 15.5981 2.08334 16.7575 3.2427C17.9168 4.40208 17.9168 6.26805 17.9168 10C17.9168 13.7319 17.9168 15.5979 16.7575 16.7573C15.5981 17.9167 13.7321 17.9167 10.0002 17.9167C6.26821 17.9167 4.40224 17.9167 3.24286 16.7573C2.0835 15.5979 2.0835 13.7319 2.0835 10Z" stroke="#FF8C1A" stroke-width="1.5"/>
<path d="M2.0835 10H17.9168" stroke="#FF8C1A" stroke-width="1.5" stroke-linecap="round" stroke-linejoin="round"/>
<path d="M10.8335 5.83334H14.1668" stroke="#FF8C1A" stroke-width="1.5" stroke-linecap="round" stroke-linejoin="round"/>
<path d="M6.87516 6.875C7.45046 6.875 7.91683 6.40863 7.91683 5.83333C7.91683 5.25803 7.45046 4.79166 6.87516 4.79166C6.29987 4.79166 5.8335 5.25803 5.8335 5.83333C5.8335 6.40863 6.29987 6.875 6.87516 6.875Z" stroke="#FF8C1A" stroke-width="1.5" stroke-linecap="round" stroke-linejoin="round"/>
<path d="M6.87516 15.2083C7.45046 15.2083 7.91683 14.742 7.91683 14.1667C7.91683 13.5914 7.45046 13.125 6.87516 13.125C6.29987 13.125 5.8335 13.5914 5.8335 14.1667C5.8335 14.742 6.29987 15.2083 6.87516 15.2083Z" stroke="#FF8C1A" stroke-width="1.5" stroke-linecap="round" stroke-linejoin="round"/>
<path d="M10.8335 14.1667H14.1668" stroke="#FF8C1A" stroke-width="1.5" stroke-linecap="round" stroke-linejoin="round"/>
</svg>
