<svg width="20" height="20" viewBox="0 0 20 20" fill="none" xmlns="http://www.w3.org/2000/svg">
<path d="M1.6665 7.14287C1.6665 5.34704 1.6665 4.44913 2.15466 3.89123C2.64281 3.33334 3.42849 3.33334 4.99984 3.33334H14.9998C16.5712 3.33334 17.3568 3.33334 17.845 3.89123C18.3332 4.44913 18.3332 5.34704 18.3332 7.14287V12.8572C18.3332 14.653 18.3332 15.5509 17.845 16.1088C17.3568 16.6667 16.5712 16.6667 14.9998 16.6667H4.99984C3.42849 16.6667 2.64281 16.6667 2.15466 16.1088C1.6665 15.5509 1.6665 14.653 1.6665 12.8572V7.14287Z" stroke="#EF5350" stroke-width="1.5" stroke-linejoin="round"/>
<path d="M10.0002 11.6667C10.9206 11.6667 11.6668 10.9205 11.6668 10C11.6668 9.07954 10.9206 8.33334 10.0002 8.33334C9.07969 8.33334 8.3335 9.07954 8.3335 10C8.3335 10.9205 9.07969 11.6667 10.0002 11.6667Z" stroke="#EF5350" stroke-width="1.5" stroke-linejoin="round"/>
<path d="M10 8.33332V4.16666M10 11.6667V15.8333" stroke="#EF5350" stroke-width="1.5" stroke-linecap="round" stroke-linejoin="round"/>
<path d="M18.3332 7.5H16.2498C15.7896 7.5 15.4165 7.8731 15.4165 8.33333V11.6667C15.4165 12.1269 15.7896 12.5 16.2498 12.5H18.3332" stroke="#EF5350" stroke-width="1.5" stroke-linecap="round" stroke-linejoin="round"/>
<path d="M1.6665 7.5H3.74984C4.21007 7.5 4.58317 7.8731 4.58317 8.33333V11.6667C4.58317 12.1269 4.21007 12.5 3.74984 12.5H1.6665" stroke="#EF5350" stroke-width="1.5" stroke-linecap="round" stroke-linejoin="round"/>
</svg>
