<svg width="20" height="20" viewBox="0 0 20 20" fill="none" xmlns="http://www.w3.org/2000/svg">
<g clip-path="url(#clip0_5273_18347)">
<path d="M6.6665 8.47226L10.1025 5.03621C11.0399 4.09882 11.5086 3.63012 12.0258 3.25262C13.0871 2.47809 14.318 1.96823 15.6161 1.76549C16.2488 1.66667 16.9117 1.66667 18.2373 1.66667C18.3066 1.66667 18.3332 1.69844 18.3332 1.76254C18.3332 3.08821 18.3332 3.75105 18.2343 4.38372C18.0316 5.68182 17.5218 6.91273 16.7473 7.97399C16.3698 8.49126 15.901 8.95992 14.9637 9.89734L11.5276 13.3333" stroke="#07B7B0" stroke-width="1.5" stroke-linecap="round" stroke-linejoin="round"/>
<path d="M8.61734 6.74865C7.19824 6.74865 5.41465 6.44805 4.08675 6.99808C3.11376 7.4011 2.39779 8.33434 1.6665 9.06559L4.42148 10.2463C5.15157 10.5592 4.70526 11.4805 4.5844 12.0848C4.44971 12.7583 4.45722 12.7831 4.94282 13.2687L6.73115 15.057C7.21675 15.5426 7.24157 15.5502 7.91497 15.4154C8.51934 15.2946 9.44067 14.8483 9.7535 15.5783L10.9343 18.3333C11.6655 17.6021 12.5988 16.8861 13.0018 15.9131C13.5518 14.5852 13.2512 12.8016 13.2512 11.3825" stroke="#07B7B0" stroke-width="1.5" stroke-linejoin="round"/>
<path d="M9.99984 16.6667L9.1665 17.5" stroke="#07B7B0" stroke-width="1.5" stroke-linecap="round" stroke-linejoin="round"/>
<path d="M3.33333 10L2.5 10.8333" stroke="#07B7B0" stroke-width="1.5" stroke-linecap="round" stroke-linejoin="round"/>
<path d="M12.5 3.39996C13.5 3.54996 14.55 3.94996 15.1345 4.54996C15.8813 5.21009 16.4 6.09996 16.6 7.49996" stroke="#07B7B0" stroke-width="1.5" stroke-linecap="square"/>
<path d="M14.95 5.05005L13.75 6.25005" stroke="#07B7B0" stroke-width="1.5" stroke-linecap="round"/>
</g>
<defs>
<clipPath id="clip0_5273_18347">
<rect width="20" height="20" fill="white"/>
</clipPath>
</defs>
</svg>
