<svg width="20" height="20" viewBox="0 0 20 20" fill="none" xmlns="http://www.w3.org/2000/svg">
<path d="M5.84521 13.3357H9.17857M5.84521 9.17108H12.5119" stroke="#F56E1A" stroke-width="1.5" stroke-linecap="round"/>
<path d="M8.34521 18.3333H9.17855" stroke="#F56E1A" stroke-width="1.5" stroke-linecap="round"/>
<path d="M6.25892 18.3332C5.28257 18.3124 4.61591 18.25 3.97007 18.0626C3.09566 17.8335 2.45744 17.0631 2.27007 15.9802C2.03257 14.9599 2.11591 12.4403 2.09503 9.44183C2.09676 7.11561 1.9909 4.88155 2.3659 3.61135C2.59507 3.19488 2.78257 1.6748 5.88674 1.69562C6.40757 1.6748 11.9284 1.63315 12.8034 1.71644C15.7201 1.77891 16.0117 3.27817 16.1784 4.69415C16.2841 5.7353 16.2617 7.40115 16.2617 9.17108M5.84507 1.6748C6.09507 3.0283 6.07424 3.90286 6.99091 4.1111C7.38674 4.17356 8.29115 4.1719 9.26173 4.17356C10.1281 4.17505 11.0117 4.18287 11.4076 4.09027C12.3867 3.86122 12.2826 2.65348 12.5326 1.6748" stroke="#F56E1A" stroke-width="1.5" stroke-linecap="round"/>
<path d="M15.2322 11.9822C14.0871 13.1483 11.8802 15.2307 11.8802 15.3764C11.7022 15.6236 11.5471 16.126 11.443 16.834C11.3122 17.4903 11.1557 18.0626 11.3389 18.2292C11.5222 18.3957 12.2121 18.2553 12.942 18.1042C13.5249 18.0417 14.0662 17.8335 14.3369 17.6253C14.7325 17.2753 17.4182 14.5643 17.7305 14.2103C17.9595 13.898 17.9803 13.3149 17.7804 12.9609C17.668 12.7111 16.9602 12.0447 16.7312 11.8573C16.3147 11.6074 15.7318 11.5657 15.2322 11.9822Z" stroke="#F56E1A" stroke-width="1.5" stroke-linecap="round"/>
</svg>
