<svg width="20" height="20" viewBox="0 0 20 20" fill="none" xmlns="http://www.w3.org/2000/svg">
<ellipse cx="10" cy="13.75" rx="5" ry="2.08333" stroke="#0FD844" stroke-width="1.5" stroke-linejoin="round"/>
<circle cx="10" cy="6.66667" r="2.5" stroke="#0FD844" stroke-width="1.5" stroke-linejoin="round"/>
<path fill-rule="evenodd" clip-rule="evenodd" d="M5.62868 10.9185C4.48468 10.9392 3.42279 11.1327 2.60835 11.4585C2.17905 11.6302 1.7813 11.8534 1.47861 12.1397C1.17434 12.4274 0.916504 12.8305 0.916504 13.3333C0.916504 13.8361 1.17434 14.2392 1.47861 14.527C1.7813 14.8132 2.17905 15.0365 2.60835 15.2082C3.07796 15.396 3.62985 15.5399 4.23231 15.632C3.69678 15.1139 3.3756 14.517 3.33709 13.8797C3.27777 13.8589 3.22052 13.8375 3.16544 13.8155C2.84072 13.6856 2.62827 13.5497 2.50927 13.4372C2.45634 13.3871 2.43227 13.3524 2.42181 13.3333C2.43227 13.3142 2.45634 13.2796 2.50927 13.2295C2.62827 13.117 2.84072 12.9811 3.16544 12.8512C3.29698 12.7986 3.44089 12.7493 3.5958 12.7043C3.9574 12.0024 4.67383 11.3853 5.62868 10.9185ZM2.41438 13.3508C2.41425 13.3508 2.41449 13.3494 2.41549 13.3467C2.41501 13.3495 2.41451 13.3508 2.41438 13.3508ZM2.41549 13.3199C2.41449 13.3172 2.41425 13.3158 2.41438 13.3158C2.41451 13.3158 2.41501 13.3172 2.41549 13.3199Z" fill="#0FD844"/>
<path fill-rule="evenodd" clip-rule="evenodd" d="M16.6627 13.8797C16.6242 14.517 16.303 15.1139 15.7675 15.632C16.3699 15.5399 16.9218 15.396 17.3914 15.2082C17.8207 15.0365 18.2185 14.8132 18.5212 14.527C18.8254 14.2392 19.0833 13.8361 19.0833 13.3333C19.0833 12.8305 18.8254 12.4274 18.5212 12.1397C18.2185 11.8534 17.8207 11.6302 17.3914 11.4585C16.577 11.1327 15.5151 10.9392 14.3711 10.9185C15.3259 11.3853 16.0424 12.0024 16.404 12.7043C16.5589 12.7493 16.7028 12.7986 16.8343 12.8512C17.159 12.9811 17.3715 13.117 17.4905 13.2295C17.5434 13.2796 17.5675 13.3142 17.578 13.3333C17.5675 13.3524 17.5434 13.3871 17.4905 13.4372C17.3715 13.5497 17.159 13.6856 16.8343 13.8155C16.7793 13.8375 16.722 13.8589 16.6627 13.8797ZM17.5854 13.3508C17.5853 13.3508 17.5848 13.3495 17.5843 13.3467C17.5853 13.3494 17.5855 13.3508 17.5854 13.3508ZM17.5843 13.3199C17.5848 13.3172 17.5853 13.3158 17.5854 13.3158C17.5855 13.3158 17.5853 13.3172 17.5843 13.3199Z" fill="#0FD844"/>
<path fill-rule="evenodd" clip-rule="evenodd" d="M13.814 8.34645C13.6076 8.81446 13.3176 9.23731 12.9629 9.59607C13.3173 9.80001 13.7283 9.91666 14.1665 9.91666C15.5012 9.91666 16.5832 8.83468 16.5832 7.49999C16.5832 6.16531 15.5012 5.08333 14.1665 5.08333C14.0637 5.08333 13.9623 5.08975 13.8628 5.10222C14.0488 5.56096 14.1554 6.06033 14.1657 6.58333C14.166 6.58333 14.1662 6.58333 14.1665 6.58333C14.6728 6.58333 15.0832 6.99373 15.0832 7.49999C15.0832 8.00626 14.6728 8.41666 14.1665 8.41666C14.0416 8.41666 13.9226 8.39168 13.814 8.34645Z" fill="#0FD844"/>
<path fill-rule="evenodd" clip-rule="evenodd" d="M6.13683 5.10222C6.03736 5.08975 5.93602 5.08333 5.83317 5.08333C4.49848 5.08333 3.4165 6.16531 3.4165 7.49999C3.4165 8.83468 4.49848 9.91666 5.83317 9.91666C6.27141 9.91666 6.6824 9.80001 7.03679 9.59607C6.68208 9.23731 6.39205 8.81446 6.18563 8.34645C6.07713 8.39168 5.95807 8.41666 5.83317 8.41666C5.32691 8.41666 4.9165 8.00626 4.9165 7.49999C4.9165 6.99373 5.32691 6.58333 5.83317 6.58333C5.83344 6.58333 5.83371 6.58333 5.83399 6.58333C5.84425 6.06033 5.95087 5.56096 6.13683 5.10222Z" fill="#0FD844"/>
</svg>
